<svg width="319" height="101" viewBox="0 0 319 101" fill="none" xmlns="http://www.w3.org/2000/svg">
<path d="M19.0703 66.1137C15.5399 66.1137 12.3422 65.2439 9.47701 63.5044C6.66299 61.7648 4.43736 59.2578 2.80011 55.9833C1.16286 52.6576 0.344238 48.7436 0.344238 44.2411C0.344238 36.4642 2.00707 29.2757 5.33273 22.6755C8.65839 16.0242 13.5701 10.7031 20.068 6.71235C26.5658 2.67039 34.3683 0.649414 43.4755 0.649414C45.829 0.649414 48.3361 0.828489 50.9966 1.18664C53.7083 1.54478 56.1641 2.08201 58.3642 2.7983C59.7968 3.20761 60.5131 4.23089 60.5131 5.86814C60.5131 7.19841 60.0014 8.45192 58.9782 9.6287C58.006 10.8055 56.8549 11.3939 55.5246 11.3939C55.1153 11.3939 54.8083 11.3683 54.6036 11.3171C51.9431 10.7031 49.6663 10.2682 47.7732 10.0124C45.8802 9.70544 43.8848 9.55195 41.7871 9.55195C35.2892 9.55195 29.7635 11.138 25.2099 14.3102C20.6563 17.4312 17.2539 21.5755 15.0027 26.743C12.7515 31.9106 11.6259 37.4875 11.6259 43.4737C11.6259 47.8226 12.4701 51.1994 14.1585 53.6041C15.8981 55.9577 18.1493 57.1345 20.9122 57.1345C24.0332 57.1345 26.7704 55.8553 29.124 53.2972C31.4775 50.739 33.6264 46.5947 35.5706 40.8643C37.5149 35.1339 39.4335 27.357 41.3266 17.5335C41.6336 16.1009 42.2475 15.1288 43.1685 14.6172C44.0894 14.1055 45.3174 13.8497 46.8523 13.8497C50.4849 13.8497 52.3013 15.0265 52.3013 17.38C52.3013 17.7893 52.2245 18.301 52.071 18.915C50.7408 23.8779 49.5128 29.378 48.3872 35.4153C47.3128 41.4015 46.7756 45.9551 46.7756 49.0761C46.7756 51.839 47.1849 53.86 48.0035 55.1391C48.8221 56.367 50.0756 56.981 51.764 56.981C53.4013 56.981 54.9618 56.4437 56.4455 55.3693C57.51 54.5617 58.7721 53.3592 60.2316 51.7616C60.3603 45.6435 61.3017 39.8111 63.0559 34.2642C63.5164 32.7804 64.2582 31.706 65.2815 31.0408C66.356 30.3245 67.8397 29.9664 69.7328 29.9664C70.7561 29.9664 71.4724 30.0943 71.8817 30.3501C72.291 30.6059 72.4956 31.092 72.4956 31.8083C72.4956 32.6269 72.1119 34.4688 71.3445 37.334C70.8328 39.3806 70.4235 41.1713 70.1165 42.7062C69.8095 44.2411 69.5537 46.1342 69.3491 48.3854C71.0375 43.9853 72.9305 40.4038 75.0283 37.641C77.126 34.8781 79.1725 32.9083 81.1679 31.7315C83.2145 30.5548 85.082 29.9664 86.7704 29.9664C90.0961 29.9664 91.7589 31.6292 91.7589 34.9549C91.7589 35.62 91.5286 37.2317 91.0682 39.7899C90.6589 41.8364 90.4542 43.1155 90.4542 43.6272C90.4542 45.4179 91.0938 46.3133 92.3728 46.3133C93.3055 46.3133 94.4116 45.8362 95.6911 44.8821C95.7122 44.7446 95.7337 44.6077 95.7557 44.4714C96.2673 41.248 97.1115 37.8456 98.2883 34.2642C98.7999 32.7292 99.5162 31.6292 100.437 30.9641C101.358 30.2989 102.816 29.9664 104.812 29.9664C105.937 29.9664 106.705 30.1455 107.114 30.5036C107.575 30.8617 107.805 31.399 107.805 32.1153C107.805 32.5246 107.523 33.906 106.961 36.2595C106.449 38.1526 106.04 39.8666 105.733 41.4015C104.709 46.7737 104.198 50.3552 104.198 52.146C104.198 53.2204 104.326 53.9879 104.581 54.4483C104.837 54.8577 105.247 55.0623 105.809 55.0623C106.577 55.0623 107.523 54.2948 108.649 52.7599C109.826 51.225 111.054 48.897 112.333 45.776C113.663 42.655 114.942 38.8177 116.17 34.2642C116.579 32.7292 117.193 31.6292 118.012 30.9641C118.882 30.2989 120.161 29.9664 121.849 29.9664C123.026 29.9664 123.845 30.1199 124.305 30.4269C124.766 30.6827 124.996 31.1943 124.996 31.9618C124.996 33.2409 124.356 36.7456 123.077 42.476C121.645 49.025 120.928 53.0669 120.928 54.6018C120.928 55.574 121.133 56.3414 121.542 56.9042C121.952 57.4159 122.489 57.6717 123.154 57.6717C124.177 57.6717 125.38 57.0577 126.761 55.8298C127.8 54.9019 129.082 53.5702 130.606 51.8347C130.728 45.69 131.67 39.8332 133.431 34.2642C133.892 32.7804 134.634 31.706 135.657 31.0408C136.731 30.3245 138.215 29.9664 140.108 29.9664C141.132 29.9664 141.848 30.0943 142.257 30.3501C142.666 30.6059 142.871 31.092 142.871 31.8083C142.871 32.6269 142.487 34.4688 141.72 37.334C141.208 39.3806 140.799 41.1713 140.492 42.7062C140.185 44.2411 139.929 46.1342 139.725 48.3854C141.413 43.9853 143.306 40.4038 145.404 37.641C147.501 34.8781 149.548 32.9083 151.543 31.7315C153.59 30.5548 155.457 29.9664 157.146 29.9664C158.783 29.9664 160.011 30.4013 160.83 31.2711C161.699 32.0897 162.134 33.3176 162.134 34.9549C162.134 36.2851 161.853 38.7922 161.29 42.476C160.778 45.597 160.369 48.5645 160.062 51.3785C159.755 54.1414 159.602 57.2368 159.602 60.6648C159.602 62.609 159.192 64.016 158.374 64.8858C157.606 65.7044 156.327 66.1137 154.536 66.1137C152.848 66.1137 151.62 65.6788 150.853 64.809C150.085 63.9393 149.701 62.6346 149.701 60.895C149.701 58.8484 150.06 55.4716 150.776 50.7645C151.39 46.6714 151.697 44.0621 151.697 42.9364C151.697 42.1178 151.415 41.7085 150.853 41.7085C150.188 41.7085 149.241 42.5783 148.013 44.3179C146.836 46.0063 145.608 48.2575 144.329 51.0715C143.101 53.8855 142.104 56.8531 141.336 59.9741C140.773 62.3788 140.108 64.016 139.341 64.8858C138.624 65.7044 137.473 66.1137 135.887 66.1137C133.943 66.1137 132.562 65.0904 131.743 63.0439C131.53 62.476 131.347 61.8136 131.193 61.0567C130.182 61.9582 129.14 62.7741 128.066 63.5044C125.559 65.2439 122.694 66.1137 119.47 66.1137C117.014 66.1137 115.198 65.1672 114.021 63.2741C112.896 61.3811 112.333 58.7205 112.333 55.2925C111.463 58.7717 110.158 61.4578 108.419 63.3509C106.679 65.1928 104.812 66.1137 102.816 66.1137C100.514 66.1137 98.6208 65.0649 97.1371 62.9671C95.7045 60.8183 94.9882 58.1577 94.9882 54.9856C94.9882 54.559 94.9914 54.1365 94.9977 53.7181C93.2562 54.5631 91.4092 54.9856 89.4565 54.9856C86.7448 54.9856 84.6727 54.2948 83.2401 52.9134C81.8587 51.532 81.1679 49.6645 81.1679 47.311C81.1679 46.5435 81.2447 45.776 81.3982 45.0086C81.5005 43.9853 81.5517 43.2946 81.5517 42.9364C81.5517 42.1178 81.2703 41.7085 80.7075 41.7085C79.94 41.7085 78.9167 42.5783 77.6376 44.3179C76.4097 46.0063 75.1818 48.2575 73.9538 51.0715C72.7259 53.8855 71.7282 56.8531 70.9607 59.9741C70.3979 62.3788 69.7328 64.016 68.9653 64.8858C68.249 65.7044 67.0978 66.1137 65.5118 66.1137C63.5675 66.1137 62.1861 65.0904 61.3675 63.0439C61.1556 62.4788 60.9729 61.8202 60.8195 61.0679C59.6831 62.1106 58.5577 62.9995 57.4432 63.7346C55.0385 65.3207 52.0966 66.1137 48.6175 66.1137C45.036 66.1137 42.1452 65.0904 39.9452 63.0439C37.7451 60.9462 36.3637 58.0042 35.8009 54.2181C32.0147 62.1485 26.4379 66.1137 19.0703 66.1137Z" fill="#161F38"/>
<path fill-rule="evenodd" clip-rule="evenodd" d="M259.4 63.8881C258.21 63.0665 257.177 62.0958 256.301 60.9761C255.131 62.0434 253.955 62.9629 252.773 63.7346C250.266 65.3207 247.299 66.1137 243.871 66.1137C240.545 66.1137 237.705 65.2184 235.352 63.4276C233.049 61.6369 230.849 58.567 228.752 54.2181C227.063 50.739 225.733 48.1808 224.761 46.5435C223.789 44.8551 222.817 43.6527 221.844 42.9364C220.924 42.2201 219.772 41.7853 218.391 41.6318C218.186 42.7062 217.598 46.083 216.626 51.7622C216.216 54.3204 215.961 55.8809 215.858 56.4437C215.347 59.5647 214.323 61.9694 212.788 63.6579C211.254 65.2951 208.926 66.1137 205.805 66.1137C202.377 66.1137 199.332 65.116 196.672 63.1206C194.062 61.0741 192.041 58.2601 190.609 54.6786C189.176 51.0459 188.46 46.9272 188.46 42.3225C188.46 33.7269 189.944 26.3081 192.911 20.0661C195.93 13.8241 200.125 9.06589 205.498 5.7914C210.921 2.46574 217.163 0.802909 224.224 0.802909C229.135 0.802909 233.254 1.54479 236.58 3.02854C239.905 4.5123 242.361 6.55885 243.947 9.16822C245.585 11.7776 246.403 14.7195 246.403 17.994C246.403 20.8592 245.712 23.6732 244.331 26.4361C243.001 29.1478 240.98 31.5525 238.268 33.6502C235.556 35.7479 232.256 37.3084 228.368 38.3317C230.824 38.9968 232.717 40.0713 234.047 41.555C235.377 43.0388 236.708 45.2132 238.038 48.0784C239.47 51.1483 240.878 53.3995 242.259 54.8321C243.692 56.2647 245.329 56.981 247.171 56.981C248.808 56.981 250.368 56.4437 251.852 55.3693C252.281 55.044 252.742 54.6545 253.235 54.2009C252.945 52.8524 252.8 51.4511 252.8 49.9971C252.8 46.1086 253.542 42.655 255.026 39.6364C256.509 36.5665 258.556 34.1874 261.165 32.499C263.775 30.7594 266.666 29.8896 269.838 29.8896C273.726 29.8896 276.847 31.2455 279.201 33.9572C281.605 36.6177 283.012 39.9178 283.422 43.8574C285.227 43.7422 287.292 43.4251 289.616 42.9061C290.135 40.1517 290.889 37.271 291.877 34.2642C292.389 32.7292 293.105 31.6292 294.026 30.9641C294.947 30.2989 296.405 29.9664 298.4 29.9664C299.526 29.9664 300.293 30.1455 300.703 30.5036C301.163 30.8617 301.393 31.399 301.393 32.1153C301.393 32.5246 301.112 33.906 300.549 36.2595C300.038 38.1526 299.628 39.8666 299.321 41.4015C298.912 43.4993 298.554 45.5202 298.247 47.4645C297.94 49.3575 297.786 50.918 297.786 52.146C297.786 54.0902 298.324 55.0623 299.398 55.0623C300.166 55.0623 301.112 54.2948 302.238 52.7599C303.414 51.225 304.642 48.897 305.922 45.776C307.252 42.655 308.531 38.8177 309.759 34.2642C310.168 32.7292 310.782 31.6292 311.601 30.9641C312.471 30.2989 313.75 29.9664 315.438 29.9664C316.615 29.9664 317.433 30.1199 317.894 30.4269C318.354 30.7338 318.585 31.2455 318.585 31.9618C318.585 33.1897 317.919 37.5642 316.589 45.0853C315.412 52.2995 314.722 56.5716 314.517 57.9019C312.624 71.0511 310.015 81.4629 306.689 89.1375C303.363 96.8121 298.938 100.649 293.412 100.649C290.803 100.649 288.679 99.8308 287.042 98.1935C285.405 96.6075 284.586 94.5097 284.586 91.9004C284.586 89.4957 285.123 87.0398 286.198 84.5328C287.323 82.0257 289.37 79.135 292.337 75.8605C295.356 72.6371 299.603 68.9277 305.077 64.7323L305.308 62.9671C305.666 61.0741 306.075 58.3624 306.535 54.8321C305.512 58.5159 304.08 61.3299 302.238 63.2741C300.396 65.1672 298.452 66.1137 296.405 66.1137C294.103 66.1137 292.21 65.0649 290.726 62.9671C289.293 60.8183 288.577 58.1577 288.577 54.9856C288.577 53.6974 288.606 52.4467 288.663 51.2335C286.806 51.603 284.854 51.8304 282.808 51.9157C281.836 56.2135 279.917 59.6671 277.052 62.2764C274.187 64.8346 270.938 66.1137 267.305 66.1137C264.235 66.1137 261.6 65.3719 259.4 63.8881ZM204.193 40.3271C204.858 41.1457 206.06 41.555 207.8 41.555L205.728 53.0669C205.472 54.5507 205.114 55.6251 204.653 56.2902C204.244 56.9554 203.707 57.2879 203.042 57.2879C202.172 57.2879 201.251 56.6996 200.279 55.5228C199.307 54.346 198.488 52.5809 197.823 50.2273C197.158 47.8738 196.825 45.0598 196.825 41.7853C196.825 34.7758 197.874 28.8408 199.972 23.9802C202.07 19.0684 204.986 15.3846 208.721 12.9288C212.507 10.4217 216.907 9.16822 221.921 9.16822C226.168 9.16822 229.391 10.0892 231.591 11.9311C233.791 13.773 234.891 16.3056 234.891 19.5289C234.891 22.1895 234.201 24.5686 232.819 26.6663C231.489 28.764 229.673 30.4013 227.37 31.578C225.119 32.7548 222.612 33.4199 219.849 33.5734L222.151 20.8336C222.203 20.5266 222.228 20.0917 222.228 19.5289C222.228 16.9196 220.77 15.6149 217.854 15.6149C214.221 15.6149 212.072 17.2777 211.407 20.6034C210.691 24.236 209.923 28.5594 209.105 33.5734H207.186C206.163 33.5734 205.242 33.9316 204.423 34.6479C203.656 35.3642 203.272 36.3363 203.272 37.5642C203.272 38.5875 203.579 39.5085 204.193 40.3271ZM267.919 57.9787C269.556 57.9787 270.963 57.3135 272.14 55.9833C273.368 54.653 274.187 52.7343 274.596 50.2273C273.01 49.1529 271.782 47.7459 270.912 46.0063C270.094 44.2667 269.684 42.4248 269.684 40.4806C269.684 39.662 269.761 38.8433 269.914 38.0247H269.531C267.484 38.0247 265.77 39.0224 264.389 41.0178C263.058 42.962 262.393 45.7249 262.393 49.3064C262.393 52.1204 262.931 54.2693 264.005 55.753C265.131 57.2368 266.435 57.9787 267.919 57.9787ZM298.554 88.7538C296.968 91.7213 295.535 93.2051 294.256 93.2051C293.489 93.2051 292.926 92.9237 292.568 92.3608C292.261 91.798 292.107 91.0818 292.107 90.212C292.107 88.1654 292.977 85.7607 294.717 82.9978C296.507 80.2862 299.373 77.2675 303.312 73.9418C301.726 80.849 300.14 85.7863 298.554 88.7538Z" fill="#161F38"/>
<path d="M272.778 90.2608C264.656 88.9651 256.438 87.5735 248.148 86.1697C221.244 81.6141 193.59 76.9316 166.091 74.9905C130.029 72.4448 93.8162 74.5646 59.072 87.9192C57.0114 88.7113 55.983 91.0238 56.775 93.0844C57.5671 95.145 59.8796 96.1734 61.9402 95.3814C95.1916 82.6005 130.113 80.465 165.529 82.965C192.601 84.876 219.72 89.4671 246.544 94.0083C254.901 95.423 263.229 96.8329 271.518 98.1554C273.698 98.5032 275.747 97.0179 276.095 94.8379C276.443 92.6579 274.958 90.6087 272.778 90.2608Z" fill="#161F38"/>
</svg>
