<svg width="319" height="101" viewBox="0 0 319 101" fill="none" xmlns="http://www.w3.org/2000/svg">
<path d="M18.9501 65.6137C15.4198 65.6137 12.2221 64.7439 9.35689 63.0044C6.54287 61.2648 4.31724 58.7578 2.67999 55.4833C1.04274 52.1576 0.224121 48.2436 0.224121 43.7411C0.224121 35.9642 1.88695 28.7757 5.21261 22.1755C8.53827 15.5242 13.45 10.2031 19.9478 6.21235C26.4457 2.17039 34.2482 0.149414 43.3554 0.149414C45.7089 0.149414 48.2159 0.328489 50.8765 0.686638C53.5882 1.04478 56.044 1.58201 58.2441 2.2983C59.6767 2.70761 60.393 3.73089 60.393 5.36814C60.393 6.69841 59.8813 7.95192 58.858 9.1287C57.8859 10.3055 56.7347 10.8939 55.4045 10.8939C54.9952 10.8939 54.6882 10.8683 54.4835 10.8171C51.823 10.2031 49.5462 9.76825 47.6531 9.51243C45.7601 9.20544 43.7647 9.05195 41.6669 9.05195C35.1691 9.05195 29.6434 10.638 25.0898 13.8102C20.5362 16.9312 17.1338 21.0755 14.8826 26.243C12.6314 31.4106 11.5058 36.9875 11.5058 42.9737C11.5058 47.3226 12.35 50.6994 14.0384 53.1041C15.778 55.4577 18.0292 56.6345 20.792 56.6345C23.913 56.6345 26.6503 55.3553 29.0039 52.7971C31.3574 50.239 33.5063 46.0947 35.4505 40.3643C37.3948 34.6339 39.3134 26.857 41.2065 17.0335C41.5135 15.6009 42.1274 14.6288 43.0484 14.1172C43.9693 13.6055 45.1973 13.3497 46.7322 13.3497C50.3648 13.3497 52.1811 14.5265 52.1811 16.88C52.1811 17.2893 52.1044 17.801 51.9509 18.415C50.6206 23.3779 49.3927 28.878 48.2671 34.9153C47.1927 40.9015 46.6554 45.4551 46.6554 48.5761C46.6554 51.339 47.0647 53.36 47.8834 54.6391C48.702 55.867 49.9555 56.481 51.6439 56.481C53.2812 56.481 54.8417 55.9437 56.3254 54.8693C57.3899 54.0617 58.6519 52.8592 60.1115 51.2616C60.2402 45.1435 61.1816 39.3111 62.9358 33.7642C63.3962 32.2804 64.1381 31.206 65.1614 30.5408C66.2359 29.8245 67.7196 29.4664 69.6127 29.4664C70.6359 29.4664 71.3522 29.5943 71.7616 29.8501C72.1709 30.1059 72.3755 30.592 72.3755 31.3083C72.3755 32.1269 71.9918 33.9688 71.2243 36.834C70.7127 38.8806 70.3034 40.6713 69.9964 42.2062C69.6894 43.7411 69.4336 45.6342 69.2289 47.8854C70.9173 43.4853 72.8104 39.9038 74.9081 37.141C77.0059 34.3781 79.0524 32.4083 81.0478 31.2315C83.0944 30.0548 84.9619 29.4664 86.6503 29.4664C89.9759 29.4664 91.6388 31.1292 91.6388 34.4549C91.6388 35.12 91.4085 36.7317 90.948 39.2899C90.5387 41.3364 90.3341 42.6155 90.3341 43.1272C90.3341 44.9179 90.9736 45.8133 92.2527 45.8133C93.1854 45.8133 94.2914 45.3362 95.571 44.3821C95.592 44.2446 95.6136 44.1077 95.6356 43.9714C96.1472 40.748 96.9914 37.3456 98.1682 33.7642C98.6798 32.2292 99.3961 31.1292 100.317 30.4641C101.238 29.7989 102.696 29.4664 104.692 29.4664C105.817 29.4664 106.585 29.6455 106.994 30.0036C107.454 30.3617 107.685 30.899 107.685 31.6153C107.685 32.0246 107.403 33.406 106.84 35.7595C106.329 37.6526 105.92 39.3666 105.613 40.9015C104.589 46.2737 104.078 49.8552 104.078 51.646C104.078 52.7204 104.206 53.4879 104.461 53.9483C104.717 54.3577 105.126 54.5623 105.689 54.5623C106.457 54.5623 107.403 53.7948 108.529 52.2599C109.706 50.725 110.934 48.397 112.213 45.276C113.543 42.155 114.822 38.3177 116.05 33.7642C116.459 32.2292 117.073 31.1292 117.892 30.4641C118.762 29.7989 120.041 29.4664 121.729 29.4664C122.906 29.4664 123.725 29.6199 124.185 29.9269C124.646 30.1827 124.876 30.6943 124.876 31.4618C124.876 32.7409 124.236 36.2456 122.957 41.976C121.525 48.525 120.808 52.5669 120.808 54.1018C120.808 55.074 121.013 55.8414 121.422 56.4042C121.831 56.9159 122.369 57.1717 123.034 57.1717C124.057 57.1717 125.259 56.5577 126.641 55.3298C127.68 54.4019 128.962 53.0702 130.485 51.3347C130.608 45.19 131.55 39.3332 133.311 33.7642C133.772 32.2804 134.514 31.206 135.537 30.5408C136.611 29.8245 138.095 29.4664 139.988 29.4664C141.011 29.4664 141.728 29.5943 142.137 29.8501C142.546 30.1059 142.751 30.592 142.751 31.3083C142.751 32.1269 142.367 33.9688 141.6 36.834C141.088 38.8806 140.679 40.6713 140.372 42.2062C140.065 43.7411 139.809 45.6342 139.604 47.8854C141.293 43.4853 143.186 39.9038 145.284 37.141C147.381 34.3781 149.428 32.4083 151.423 31.2315C153.47 30.0548 155.337 29.4664 157.026 29.4664C158.663 29.4664 159.891 29.9013 160.71 30.7711C161.579 31.5897 162.014 32.8176 162.014 34.4549C162.014 35.7851 161.733 38.2922 161.17 41.976C160.658 45.097 160.249 48.0645 159.942 50.8785C159.635 53.6414 159.482 56.7368 159.482 60.1648C159.482 62.109 159.072 63.516 158.254 64.3858C157.486 65.2044 156.207 65.6137 154.416 65.6137C152.728 65.6137 151.5 65.1788 150.733 64.309C149.965 63.4393 149.581 62.1346 149.581 60.395C149.581 58.3484 149.94 54.9716 150.656 50.2645C151.27 46.1714 151.577 43.5621 151.577 42.4364C151.577 41.6178 151.295 41.2085 150.733 41.2085C150.067 41.2085 149.121 42.0783 147.893 43.8179C146.716 45.5063 145.488 47.7575 144.209 50.5715C142.981 53.3855 141.984 56.3531 141.216 59.4741C140.653 61.8788 139.988 63.516 139.221 64.3858C138.504 65.2044 137.353 65.6137 135.767 65.6137C133.823 65.6137 132.441 64.5904 131.623 62.5439C131.41 61.976 131.226 61.3136 131.073 60.5567C130.062 61.4582 129.019 62.2741 127.946 63.0044C125.439 64.7439 122.573 65.6137 119.35 65.6137C116.894 65.6137 115.078 64.6672 113.901 62.7741C112.775 60.8811 112.213 58.2205 112.213 54.7925C111.343 58.2717 110.038 60.9578 108.299 62.8509C106.559 64.6928 104.692 65.6137 102.696 65.6137C100.394 65.6137 98.5007 64.5649 97.017 62.4671C95.5844 60.3183 94.8681 57.6577 94.8681 54.4856C94.8681 54.059 94.8713 53.6365 94.8776 53.2181C93.1361 54.0631 91.2891 54.4856 89.3364 54.4856C86.6247 54.4856 84.5525 53.7949 83.12 52.4134C81.7385 51.032 81.0478 49.1645 81.0478 46.811C81.0478 46.0435 81.1246 45.276 81.2781 44.5086C81.3804 43.4853 81.4315 42.7946 81.4315 42.4364C81.4315 41.6178 81.1501 41.2085 80.5873 41.2085C79.8199 41.2085 78.7966 42.0783 77.5175 43.8179C76.2896 45.5063 75.0616 47.7575 73.8337 50.5715C72.6058 53.3855 71.6081 56.3531 70.8406 59.4741C70.2778 61.8788 69.6127 63.516 68.8452 64.3858C68.1289 65.2044 66.9777 65.6137 65.3916 65.6137C63.4474 65.6137 62.066 64.5904 61.2474 62.5439C61.0355 61.9788 60.8528 61.3202 60.6994 60.5679C59.563 61.6106 58.4376 62.4995 57.3231 63.2346C54.9184 64.8207 51.9765 65.6137 48.4973 65.6137C44.9159 65.6137 42.0251 64.5904 39.825 62.5439C37.625 60.4462 36.2436 57.5042 35.6808 53.7181C31.8946 61.6485 26.3178 65.6137 18.9501 65.6137Z" fill="#F9F9FA"/>
<path fill-rule="evenodd" clip-rule="evenodd" d="M259.28 63.3881C258.09 62.5665 257.057 61.5958 256.181 60.4761C255.011 61.5434 253.835 62.4629 252.653 63.2346C250.146 64.8207 247.178 65.6137 243.75 65.6137C240.425 65.6137 237.585 64.7184 235.232 62.9276C232.929 61.1369 230.729 58.067 228.632 53.7181C226.943 50.239 225.613 47.6808 224.641 46.0435C223.669 44.3551 222.696 43.1527 221.724 42.4364C220.803 41.7202 219.652 41.2853 218.271 41.1318C218.066 42.2062 217.478 45.583 216.506 51.2622C216.096 53.8204 215.841 55.3809 215.738 55.9437C215.227 59.0647 214.203 61.4694 212.668 63.1579C211.133 64.7951 208.805 65.6137 205.684 65.6137C202.256 65.6137 199.212 64.616 196.552 62.6206C193.942 60.5741 191.921 57.7601 190.489 54.1786C189.056 50.5459 188.34 46.4272 188.34 41.8225C188.34 33.2269 189.824 25.8081 192.791 19.5661C195.81 13.3241 200.005 8.56589 205.377 5.2914C210.801 1.96574 217.043 0.302909 224.104 0.302909C229.015 0.302909 233.134 1.04479 236.46 2.52854C239.785 4.01229 242.241 6.05885 243.827 8.66822C245.464 11.2776 246.283 14.2195 246.283 17.494C246.283 20.3592 245.592 23.1732 244.211 25.9361C242.881 28.6478 240.86 31.0525 238.148 33.1502C235.436 35.2479 232.136 36.8084 228.248 37.8317C230.704 38.4968 232.597 39.5713 233.927 41.055C235.257 42.5388 236.588 44.7132 237.918 47.5784C239.35 50.6483 240.757 52.8995 242.139 54.3321C243.571 55.7647 245.209 56.481 247.051 56.481C248.688 56.481 250.248 55.9437 251.732 54.8693C252.161 54.544 252.622 54.1545 253.115 53.7009C252.825 52.3524 252.68 50.9511 252.68 49.4971C252.68 45.6086 253.422 42.155 254.906 39.1364C256.389 36.0665 258.436 33.6874 261.045 31.999C263.655 30.2594 266.545 29.3896 269.718 29.3896C273.606 29.3896 276.727 30.7455 279.081 33.4572C281.485 36.1177 282.892 39.4178 283.302 43.3574C285.107 43.2422 287.172 42.9251 289.496 42.4061C290.015 39.6517 290.769 36.771 291.757 33.7642C292.269 32.2292 292.985 31.1292 293.906 30.4641C294.827 29.7989 296.285 29.4664 298.28 29.4664C299.406 29.4664 300.173 29.6455 300.583 30.0036C301.043 30.3617 301.273 30.899 301.273 31.6153C301.273 32.0246 300.992 33.406 300.429 35.7595C299.918 37.6526 299.508 39.3666 299.201 40.9015C298.792 42.9993 298.434 45.0202 298.127 46.9645C297.82 48.8575 297.666 50.418 297.666 51.646C297.666 53.5902 298.204 54.5623 299.278 54.5623C300.045 54.5623 300.992 53.7948 302.118 52.2599C303.294 50.725 304.522 48.397 305.801 45.276C307.132 42.155 308.411 38.3177 309.639 33.7642C310.048 32.2292 310.662 31.1292 311.481 30.4641C312.35 29.7989 313.629 29.4664 315.318 29.4664C316.495 29.4664 317.313 29.6199 317.774 29.9269C318.234 30.2338 318.464 30.7455 318.464 31.4618C318.464 32.6897 317.799 37.0642 316.469 44.5853C315.292 51.7995 314.602 56.0716 314.397 57.4019C312.504 70.5511 309.895 80.9629 306.569 88.6375C303.243 96.3121 298.817 100.149 293.292 100.149C290.682 100.149 288.559 99.3308 286.922 97.6935C285.285 96.1075 284.466 94.0097 284.466 91.4004C284.466 88.9957 285.003 86.5398 286.078 84.0328C287.203 81.5257 289.25 78.635 292.217 75.3605C295.236 72.1371 299.483 68.4277 304.957 64.2323L305.187 62.4671C305.546 60.5741 305.955 57.8624 306.415 54.3321C305.392 58.0159 303.96 60.8299 302.118 62.7741C300.276 64.6672 298.331 65.6137 296.285 65.6137C293.982 65.6137 292.089 64.5649 290.606 62.4671C289.173 60.3183 288.457 57.6577 288.457 54.4856C288.457 53.1974 288.486 51.9467 288.543 50.7335C286.686 51.103 284.734 51.3304 282.688 51.4157C281.716 55.7135 279.797 59.1671 276.932 61.7764C274.067 64.3346 270.818 65.6137 267.185 65.6137C264.115 65.6137 261.48 64.8719 259.28 63.3881ZM204.073 39.8271C204.738 40.6457 205.94 41.055 207.68 41.055L205.608 52.5669C205.352 54.0507 204.994 55.1251 204.533 55.7902C204.124 56.4554 203.587 56.7879 202.922 56.7879C202.052 56.7879 201.131 56.1996 200.159 55.0228C199.187 53.846 198.368 52.0809 197.703 49.7273C197.038 47.3738 196.705 44.5598 196.705 41.2853C196.705 34.2758 197.754 28.3408 199.852 23.4802C201.949 18.5684 204.866 14.8846 208.601 12.4288C212.387 9.92173 216.787 8.66822 221.801 8.66822C226.048 8.66822 229.271 9.58917 231.471 11.4311C233.671 13.273 234.771 15.8056 234.771 19.0289C234.771 21.6895 234.08 24.0686 232.699 26.1663C231.369 28.264 229.552 29.9013 227.25 31.078C224.999 32.2548 222.492 32.9199 219.729 33.0734L222.031 20.3336C222.083 20.0266 222.108 19.5917 222.108 19.0289C222.108 16.4196 220.65 15.1149 217.734 15.1149C214.101 15.1149 211.952 16.7777 211.287 20.1034C210.571 23.736 209.803 28.0594 208.985 33.0734H207.066C206.043 33.0734 205.122 33.4316 204.303 34.1479C203.536 34.8642 203.152 35.8363 203.152 37.0642C203.152 38.0875 203.459 39.0085 204.073 39.8271ZM267.799 57.4787C269.436 57.4787 270.843 56.8135 272.02 55.4833C273.248 54.153 274.067 52.2343 274.476 49.7273C272.89 48.6529 271.662 47.2459 270.792 45.5063C269.973 43.7667 269.564 41.9248 269.564 39.9806C269.564 39.1619 269.641 38.3433 269.794 37.5247H269.411C267.364 37.5247 265.65 38.5224 264.269 40.5178C262.938 42.462 262.273 45.2249 262.273 48.8064C262.273 51.6204 262.81 53.7693 263.885 55.253C265.011 56.7368 266.315 57.4787 267.799 57.4787ZM298.434 88.2538C296.848 91.2213 295.415 92.7051 294.136 92.7051C293.369 92.7051 292.806 92.4237 292.448 91.8608C292.141 91.298 291.987 90.5818 291.987 89.712C291.987 87.6654 292.857 85.2607 294.596 82.4978C296.387 79.7862 299.252 76.7675 303.192 73.4418C301.606 80.349 300.02 85.2863 298.434 88.2538Z" fill="#F9F9FA"/>
<path d="M272.658 89.7608C264.536 88.4651 256.318 87.0735 248.027 85.6697C221.124 81.1141 193.47 76.4316 165.971 74.4905C129.909 71.9448 93.6961 74.0646 58.9519 87.4192C56.8912 88.2113 55.8629 90.5238 56.6549 92.5844C57.4469 94.645 59.7595 95.6734 61.8201 94.8814C95.0715 82.1005 129.992 79.965 165.408 82.465C192.481 84.376 219.6 88.9671 246.424 93.5083C254.781 94.923 263.109 96.3329 271.398 97.6554C273.578 98.0032 275.627 96.5179 275.975 94.3379C276.323 92.1579 274.838 90.1087 272.658 89.7608Z" fill="#F9F9FA"/>
</svg>
